# xmcd
#
# Track frame offsets: 
#        150
#        17880
#        36102
#        55079
#        74949
#        92172
#        108628
#        123660
#        139241
#        156541
#        168403
#        185875
#        204017
#        217248
#
# Disc length: 3147 seconds
#
# Revision: 6
# Processed by: cddbd v1.5.2PL0 Copyright (c) Steve Scherf et al.
# Submitted via: ExactAudioCopyFreeDBPlugin 1.0
#
DISCID=e10c490e
DTITLE=BANDARI 班得瑞 - Moonlight Bay 月光水岸
DYEAR=2004
DGENRE=New Age
TTITLE0=加勒比海蓝 Caribbean Blue
TTITLE1=彩虹河 Rainbow River
TTITLE2=月光之子 Hijo De La Luna
TTITLE3=生命之书 The Book of Life
TTITLE4=月光 Moonglow
TTITLE5=奇幻领域 Mystic Zone
TTITLE6=寂寞心事 Lonely Hearts
TTITLE7=克尔特华尔兹 Celtic Waltz
TTITLE8=光明之路 The Glory Way
TTITLE9=水印 Watermark
TTITLE10=晨歌 Morning Mood
TTITLE11=冬梦 Winter Dreams
TTITLE12=埃米莉圆舞曲 La Valse D'Amelie
TTITLE13=神律 Law of the Lord
EXTD=YEAR: 2004
EXTT0=
EXTT1=
EXTT2=
EXTT3=
EXTT4=
EXTT5=
EXTT6=
EXTT7=
EXTT8=
EXTT9=
EXTT10=
EXTT11=
EXTT12=
EXTT13=
PLAYORDER=
